<svg xmlns="http://www.w3.org/2000/svg" xmlns:xlink="http://www.w3.org/1999/xlink" width="104" height="104" viewBox="0 0 104 104"><defs><linearGradient id="a" x2="1" y2="1" gradientUnits="objectBoundingBox"><stop offset="0" stop-color="#fefefe"/><stop offset="0.25" stop-color="#fefce8"/><stop offset="0.5" stop-color="#f7fee7"/><stop offset="0.75" stop-color="#f0f9ff"/><stop offset="1" stop-color="#ecfeff"/></linearGradient><filter id="b" x="0" y="0" width="104" height="104" filterUnits="userSpaceOnUse"><feOffset dy="4" input="SourceAlpha"/><feGaussianBlur stdDeviation="4" result="c"/><feFlood flood-color="#bfd19b" flood-opacity="0.49"/><feComposite operator="in" in2="c"/><feComposite in="SourceGraphic"/></filter><linearGradient id="d" x2="1" y2="1" gradientUnits="objectBoundingBox"><stop offset="0" stop-color="#34d399"/><stop offset="0.5" stop-color="#22c55e"/><stop offset="1" stop-color="#16a34a"/></linearGradient></defs><g transform="translate(-378 -392)"><g transform="matrix(1, 0, 0, 1, 378, 392)" filter="url(#b)"><path d="M16,0H64A16,16,0,0,1,80,16V64A16,16,0,0,1,64,80H16A16,16,0,0,1,0,64V16A16,16,0,0,1,16,0Z" transform="translate(12 8)" fill="url(#a)"/></g><path d="M324.091,50.449a18.794,18.794,0,0,0-7.915-3.87,27.728,27.728,0,0,0-9.849-.672,27.915,27.915,0,0,1-3.493.385,1.926,1.926,0,0,1-1.463-2.031c-.019-10.385,0-20.772-.011-31.158a2.108,2.108,0,0,1,.982-2.331,17.471,17.471,0,0,1,4.9-1.035,25.357,25.357,0,0,1,16.908,4.531c.678.464,1.219,1.121,1.927,1.539,5.665-5.3,14.03-7.158,21.535-5.626,1.172.238,2.7.486,2.982,1.886.091,10.7.005,21.4.041,32.1a1.916,1.916,0,0,1-1.306,2.105,10.077,10.077,0,0,1-3.118-.3,25.544,25.544,0,0,0-16.148,3.045c-1.343.685-2.318,1.891-3.644,2.587a1.184,1.184,0,0,1-.381.064C325.274,51.661,324.686,50.874,324.091,50.449Zm16.453-39.057A20.917,20.917,0,0,0,326.8,17.609c-.049,10.541-.012,21.084-.019,31.626a20.124,20.124,0,0,1,5.912-3.357,28.476,28.476,0,0,1,15.214-1.332c.305.08.985.239.973-.285q0-15.678,0-31.353c.072-.325-.059-.8-.447-.82a24.039,24.039,0,0,0-6.027-.769Q341.473,11.319,340.544,11.391ZM311.063,44.121c5.048.455,10.34,1.7,14.252,5.11-.01-10.538.033-21.079-.022-31.615a19.86,19.86,0,0,0-16.686-6.224h-.974c-1.489.244-3.162.235-4.5.951-.032,10.573,0,21.148-.014,31.723-.2.312.073.689.38.571a25.316,25.316,0,0,1,5.5-.6Q310.028,44.039,311.063,44.121Zm26.676-5.052a.9.9,0,0,1-.608-1.04c-.018-3.926.008-7.852-.01-11.777-.843-.013-1.687-.009-2.53-.005s-1.686.007-2.528,0a.874.874,0,0,1-.748-1.328c.3-.5.924-.442,1.428-.422.575,0,1.151,0,1.727,0,.883,0,1.766.006,2.65-.005.026-1.813-.016-3.628.013-5.441a.913.913,0,0,1,.706-.657.942.942,0,0,1,1.031.757c.032,1.78-.013,3.56.014,5.341.725.023,1.454.014,2.182,0,1.069-.014,2.139-.028,3.2.064a.869.869,0,0,1-.139,1.682c-.862.018-1.725.013-2.587.008-.886-.005-1.772-.011-2.657.01-.017,3.891.007,7.782-.01,11.675a1.024,1.024,0,0,1-.858,1.19A.779.779,0,0,1,337.738,39.069Z" transform="translate(104.011 409.338)" fill="url(#d)"/></g></svg>